<svg width="35" height="35" fill="none" xmlns="http://www.w3.org/2000/svg"><g clip-path="url(#clip0_2125_133)" fill="#fff"><path d="M34.966 10.29c-.082-1.86-.383-3.138-.814-4.246a8.54 8.54 0 00-2.024-3.104A8.614 8.614 0 0029.031.923C27.917.493 26.645.191 24.785.11 22.912.02 22.317 0 17.565 0s-5.347.02-7.213.103c-1.86.082-3.139.383-4.246.813A8.54 8.54 0 003.002 2.94 8.617 8.617 0 00.985 6.037C.554 7.152.253 8.423.17 10.283c-.089 1.874-.11 2.469-.11 7.22 0 4.752.021 5.347.103 7.214.082 1.86.383 3.138.814 4.246a8.63 8.63 0 002.024 3.104 8.613 8.613 0 003.097 2.017c1.114.43 2.386.731 4.246.813 1.866.083 2.461.103 7.213.103 4.752 0 5.347-.02 7.214-.103 1.86-.082 3.138-.382 4.245-.813a8.952 8.952 0 005.122-5.121c.43-1.115.731-2.387.813-4.246.082-1.867.103-2.462.103-7.214 0-4.752-.007-5.346-.09-7.213zm-3.152 14.29c-.075 1.71-.363 2.632-.602 3.248a5.806 5.806 0 01-3.323 3.323c-.615.239-1.545.526-3.247.601-1.847.082-2.4.103-7.07.103s-5.23-.02-7.07-.103c-1.71-.075-2.632-.362-3.248-.601a5.385 5.385 0 01-2.01-1.306 5.442 5.442 0 01-1.306-2.01c-.24-.616-.526-1.546-.601-3.248-.083-1.846-.103-2.4-.103-7.07s.02-5.23.103-7.07c.075-1.709.362-2.632.601-3.247a5.32 5.32 0 011.313-2.01 5.433 5.433 0 012.01-1.306c.616-.24 1.546-.527 3.248-.602 1.846-.082 2.4-.103 7.07-.103 4.676 0 5.23.02 7.07.103 1.709.075 2.632.362 3.247.602.759.28 1.45.724 2.01 1.305a5.44 5.44 0 011.306 2.01c.24.616.527 1.546.602 3.248.082 1.847.102 2.4.102 7.07s-.02 5.217-.102 7.063z"/><path d="M17.565 8.512a8.993 8.993 0 00-8.991 8.991c0 4.964 4.027 8.991 8.99 8.991a8.993 8.993 0 008.992-8.99 8.993 8.993 0 00-8.991-8.992zm0 14.824a5.833 5.833 0 11.002-11.667 5.833 5.833 0 01-.002 11.667zM29.01 8.157a2.1 2.1 0 11-4.198 0 2.1 2.1 0 014.199 0z"/></g><defs><clipPath id="clip0_2125_133"><path fill="#fff" d="M0 0h35v35H0z"/></clipPath></defs></svg>