<svg width="35" height="35" fill="none" xmlns="http://www.w3.org/2000/svg"><g clip-path="url(#clip0_2125_137)" fill="#fff"><path d="M34.991 35v-.002h.01V22.163c0-6.28-1.353-11.117-8.694-11.117-3.53 0-5.897 1.937-6.864 3.773h-.103v-3.186h-6.96v23.366h7.248v-11.57c0-3.046.577-5.992 4.35-5.992 3.717 0 3.773 3.477 3.773 6.188V35h7.24zM.578 11.633h7.256V35H.578V11.633zM4.203 0A4.204 4.204 0 000 4.203c0 2.32 1.883 4.242 4.203 4.242 2.32 0 4.203-1.922 4.203-4.242A4.206 4.206 0 004.203 0z"/></g><defs><clipPath id="clip0_2125_137"><path fill="#fff" d="M0 0h35v35H0z"/></clipPath></defs></svg>